<svg xmlns="http://www.w3.org/2000/svg" width="12.631" height="12.631" viewBox="0 0 12.631 12.631">
  <g id="Group_344" data-name="Group 344" transform="translate(-41 -951.237)">
    <rect id="Rectangle_164" data-name="Rectangle 164" width="9" height="7" transform="translate(42 956.105)" fill="#ffbe00"/>
    <g id="Group_343" data-name="Group 343" transform="translate(41 951.237)">
      <path id="Path_201" data-name="Path 201" d="M6.632,4.526A.632.632,0,0,1,6,3.895V2.632a.632.632,0,1,1,1.263,0V3.895a.632.632,0,0,1-.631.632Zm6.316,0a.632.632,0,0,1-.632-.632V2.632a.632.632,0,1,1,1.263,0V3.895a.632.632,0,0,1-.631.632Z" transform="translate(-3.474 -2)" fill="#78788c"/>
      <path id="Path_202" data-name="Path 202" d="M12.737,4h-.632v.632a.632.632,0,0,1-1.263,0V4H5.789v.632a.632.632,0,0,1-1.263,0V4H3.895A1.9,1.9,0,0,0,2,5.895V7.158H14.631V5.895A1.9,1.9,0,0,0,12.737,4Z" transform="translate(-2 -2.737)" fill="#ffbe00"/>
      <path id="Path_203" data-name="Path 203" d="M2,9v6.316A1.9,1.9,0,0,0,3.895,17.21h8.842a1.9,1.9,0,0,0,1.895-1.895V9Zm3.158,5.684a.632.632,0,1,1,.632-.632A.632.632,0,0,1,5.158,14.684Zm0-2.526a.632.632,0,1,1,.632-.632A.632.632,0,0,1,5.158,12.158Zm3.158,2.526a.632.632,0,1,1,.632-.632A.632.632,0,0,1,8.316,14.684Zm0-2.526a.632.632,0,1,1,.632-.632A.632.632,0,0,1,8.316,12.158Zm3.158,2.526a.632.632,0,1,1,.632-.632A.632.632,0,0,1,11.474,14.684Zm0-2.526a.632.632,0,1,1,.632-.632A.632.632,0,0,1,11.474,12.158Z" transform="translate(-2 -4.579)" fill="#78788c"/>
    </g>
  </g>
</svg>
