<svg xmlns="http://www.w3.org/2000/svg" width="17.338" height="10.037" viewBox="0 0 17.338 10.037">
  <g id="Group_2766" data-name="Group 2766" transform="translate(-192 -951.277)">
    <path id="Path_1401" data-name="Path 1401" d="M2.574,0h2.9A1.884,1.884,0,0,1,7.237.924l.976,3.182a.456.456,0,0,1-.456.456H.456A.456.456,0,0,1,0,4.106L.99.924A1.624,1.624,0,0,1,2.574,0Z" transform="translate(192 956.752)" fill="#78788c"/>
    <path id="Path_1402" data-name="Path 1402" d="M2.574,0h2.9A1.884,1.884,0,0,1,7.237.924l.976,3.182a.456.456,0,0,1-.456.456H.456A.456.456,0,0,1,0,4.106L.99.924A1.624,1.624,0,0,1,2.574,0Z" transform="translate(201.125 956.752)" fill="#78788c"/>
    <path id="Path_1403" data-name="Path 1403" d="M2.574,0h2.9A1.884,1.884,0,0,1,7.237.924l.976,3.182a.456.456,0,0,1-.456.456H.456A.456.456,0,0,1,0,4.106L.99.924A1.624,1.624,0,0,1,2.574,0Z" transform="translate(196.563 951.277)" fill="#ffbe00"/>
  </g>
</svg>
