<svg id="Group_346" data-name="Group 346" xmlns="http://www.w3.org/2000/svg" width="14.526" height="14.526" viewBox="0 0 14.526 14.526">
  <path id="Path_204" data-name="Path 204" d="M9.93,14.526H4.6A4.592,4.592,0,0,1,0,9.93V4.6A4.592,4.592,0,0,1,4.6,0H9.93a4.592,4.592,0,0,1,4.6,4.6V9.93A4.592,4.592,0,0,1,9.93,14.526Z" fill="#78788c"/>
  <path id="Path_205" data-name="Path 205" d="M44.616,30.847A1.221,1.221,0,0,0,44,29.917a5.8,5.8,0,0,0-.533-.238c.023-.011.034-.034.045-.034a1.466,1.466,0,0,0,.17-2.326,2.244,2.244,0,0,0-.874-.386c-.227-.045-.443-.079-.681-.125,0-.4.011-.965.011-1.407h-.851c0,.431-.011.987-.011,1.373h-.67c0-.4,0-.942.011-1.373h-.84c0,.454-.011,1-.011,1.4-.579,0-1.135-.011-1.7-.011,0,.306,0,.6-.011.9h.34a2.974,2.974,0,0,1,.318.011.427.427,0,0,1,.443.477l-.034,3.62c0,.261-.113.375-.375.375h-.567c-.057.34-.113.67-.182,1.01.567.011,1.135.011,1.7.023,0,.431,0,.987-.011,1.441h.84c0-.454.011-.987.011-1.419.238.011.454.011.67.023,0,.431-.011.953-.011,1.4h.84c0-.454.011-.987.011-1.407a.4.4,0,0,0,.068-.011c.4-.068.817-.1,1.2-.193a1.532,1.532,0,0,0,1.124-.931,2.16,2.16,0,0,0,.17-1.248ZM40.61,27.772a3.62,3.62,0,0,1,1.521.17.693.693,0,0,1,.454.715.748.748,0,0,1-.545.681,4.075,4.075,0,0,1-1.441.125C40.6,28.9,40.61,28.351,40.61,27.772Zm1.839,4.21A3.739,3.739,0,0,1,41,32.2c-.136,0-.272-.011-.431-.011.011-.624.011-1.237.023-1.861a4.549,4.549,0,0,1,1.873.216.752.752,0,0,1,.488.726A.732.732,0,0,1,42.449,31.982Z" transform="translate(-33.687 -22.517)" opacity="0.2"/>
  <path id="Path_206" data-name="Path 206" d="M42.616,28.847A1.221,1.221,0,0,0,42,27.917a5.8,5.8,0,0,0-.533-.238c.023-.011.034-.034.045-.034a1.466,1.466,0,0,0,.17-2.326,2.244,2.244,0,0,0-.874-.386c-.227-.045-.443-.079-.681-.125,0-.4.011-.965.011-1.407h-.851c0,.431-.011.987-.011,1.373h-.67c0-.4,0-.942.011-1.373h-.84c0,.454-.011,1-.011,1.4-.579,0-1.135-.011-1.7-.011,0,.306,0,.6-.011.9h.34a2.974,2.974,0,0,1,.318.011.427.427,0,0,1,.443.477l-.034,3.62c0,.261-.113.375-.375.375h-.567c-.057.34-.113.67-.182,1.01.567.011,1.135.011,1.7.023,0,.431,0,.987-.011,1.441h.84c0-.454.011-.987.011-1.419.238.011.454.011.67.023,0,.431-.011.953-.011,1.4h.84c0-.454.011-.987.011-1.407a.4.4,0,0,0,.068-.011c.4-.068.817-.1,1.2-.193a1.532,1.532,0,0,0,1.124-.931A2.16,2.16,0,0,0,42.616,28.847ZM38.61,25.772a3.62,3.62,0,0,1,1.521.17.693.693,0,0,1,.454.715.748.748,0,0,1-.545.681,4.075,4.075,0,0,1-1.441.125C38.6,26.9,38.61,26.351,38.61,25.772Zm1.839,4.21A3.739,3.739,0,0,1,39,30.2c-.136,0-.272-.011-.431-.011.011-.624.011-1.237.023-1.861a4.549,4.549,0,0,1,1.873.216.752.752,0,0,1,.488.726A.732.732,0,0,1,40.449,29.982Z" transform="translate(-31.914 -20.744)" fill="#ffbe00"/>
</svg>
