<svg id="Group_345" data-name="Group 345" xmlns="http://www.w3.org/2000/svg" width="12.631" height="12.964" viewBox="0 0 12.631 12.964">
  <circle id="Ellipse_1" data-name="Ellipse 1" cx="3.49" cy="3.49" r="3.49" transform="translate(0 5.983)" fill="#78788c"/>
  <path id="Path_7" data-name="Path 7" d="M5.8,22.663a.4.4,0,0,1,.4.4.429.429,0,0,1-.4.4H5.73v.5H5.8a.4.4,0,0,1,.4.4.429.429,0,0,1-.4.4H5.73a.571.571,0,0,0,.565.5.6.6,0,0,0,.6-.6.4.4,0,0,1,.4-.4.429.429,0,0,1,.4.4,1.4,1.4,0,0,1-2.792.066H4.8a.4.4,0,0,1-.4-.4.429.429,0,0,1,.4-.4h.066v-.5H4.8a.4.4,0,0,1-.4-.4.429.429,0,0,1,.4-.4h.1a1.4,1.4,0,0,1,2.792.066.4.4,0,0,1-.4.4.429.429,0,0,1-.4-.4.6.6,0,0,0-.6-.6.548.548,0,0,0-.565.5A.065.065,0,0,0,5.8,22.663Z" transform="translate(-2.937 -14.22)" fill="#a0a0b4"/>
  <path id="Path_8" data-name="Path 8" d="M4.457,8.255h.066a.425.425,0,0,0,.4-.366A3.237,3.237,0,0,1,6.452,5.563l.133.3a.256.256,0,0,0,.465,0l.6-1.1a.293.293,0,0,0-.166-.4L6.285,4.1c-.233,0-.4.2-.3.4l.133.3A4.174,4.174,0,0,0,4.091,7.79.414.414,0,0,0,4.457,8.255Z" transform="translate(-2.729 -2.737)" fill="#ffbe00"/>
  <circle id="Ellipse_2" data-name="Ellipse 2" cx="3.49" cy="3.49" r="3.49" transform="translate(5.651)" fill="#78788c"/>
  <path id="Path_9" data-name="Path 9" d="M24.775,4.828l.765.4a1.141,1.141,0,0,1,.6,1.163,1.079,1.079,0,0,1-.665.831v.133a.4.4,0,0,1-.4.4.429.429,0,0,1-.4-.4v-.1a1.2,1.2,0,0,1-.831-.765.4.4,0,0,1,.731-.332.5.5,0,0,0,.5.3h.033a.233.233,0,0,0,.2-.233.276.276,0,0,0-.166-.3l-.765-.4a1.162,1.162,0,0,1-.6-1.2,1.063,1.063,0,0,1,.831-.864V3.4a.4.4,0,0,1,.4-.4.429.429,0,0,1,.4.4v.2a1.249,1.249,0,0,1,.665.7.39.39,0,0,1-.2.532A.381.381,0,0,1,25.34,4.6a.5.5,0,0,0-.5-.3c-.2.033-.233.166-.233.233a.339.339,0,0,0,.166.3Z" transform="translate(-15.866 -2.003)" fill="#a0a0b4"/>
  <path id="Path_10" data-name="Path 10" d="M26.841,22.891a.414.414,0,0,0-.465.332,3.338,3.338,0,0,1-1.529,2.327l-.166-.332a.256.256,0,0,0-.465,0l-.565,1.1a.25.25,0,0,0,.2.366l1.2.233a.267.267,0,0,0,.3-.366l-.133-.233a4.136,4.136,0,0,0,1.994-2.958.414.414,0,0,0-.366-.465Z" transform="translate(-15.772 -15.279)" fill="#ffbe00"/>
</svg>
