<svg xmlns="http://www.w3.org/2000/svg" width="12.631" height="14.526" viewBox="0 0 12.631 14.526">
  <g id="Group_342" data-name="Group 342" transform="translate(-1)">
    <path id="Path_199" data-name="Path 199" d="M4.519,14.255S1,13.894,1,9.113A7.922,7.922,0,0,1,3.8,3.248,9.9,9.9,0,0,0,5.872,4.962C6.774,5.5,7.135,0,7.135,0s6.5,3.519,6.5,8.842c0,5.5-3.609,5.323-3.609,5.323a8.85,8.85,0,0,0,1.624-4.692c0-2.707-3.519-6.045-3.519-6.045S7.677,7.4,6.233,7.94A7.059,7.059,0,0,1,3.977,5.865S.639,11.1,4.519,14.255Z" transform="translate(0)" fill="#ffbe00"/>
    <path id="Path_200" data-name="Path 200" d="M7.838,15.465C6.034,15.374,4.5,14.2,4.5,12.577a3.694,3.694,0,0,1,.632-2.346,5.052,5.052,0,0,0,.992,1.353c.541.451,1.624.722,2.165.09A4.628,4.628,0,0,0,9.011,9.6a3.183,3.183,0,0,1,1.083,2.707c-.09,1.8-.812,3.158-2.256,3.158Z" transform="translate(-0.342 -0.939)" fill="#78788c"/>
  </g>
</svg>
