<svg xmlns="http://www.w3.org/2000/svg" width="11.697" height="17.117" viewBox="0 0 11.697 17.117">
  <g id="Group_343" data-name="Group 343" transform="translate(3665.622 833.308)">
    <path id="Subtraction_5" data-name="Subtraction 5" d="M4.269,7.507V4.462a.846.846,0,0,0-1.692,0v2.95L2.235,7.28a3.9,3.9,0,1,1,2.344.152ZM3.422,3.116A1.348,1.348,0,0,1,4.768,4.462V6.855a3.4,3.4,0,1,0-2.692-.2v-2.2A1.348,1.348,0,0,1,3.422,3.116Z" transform="translate(-3663.552 -833.058)" fill="#fff"/>
    <path id="Union_7" data-name="Union 7" d="M4.76,13.435a2.678,2.678,0,0,1-1.749-.654L.08,9.977A1.048,1.048,0,0,1-.248,9.3a1.084,1.084,0,0,1,.312-.8A.25.25,0,0,1,.1,8.47a1.8,1.8,0,0,1,.923-.387c.28.008,2.086.48,2.873.688V1.1a1.346,1.346,0,1,1,2.692,0V5.154a3.028,3.028,0,0,1,.775.233c.636.294,2.89,1.375,3.086,1.469a1.6,1.6,0,0,1,.968,1.854c-.2,1.228-.485,3.094-.488,3.113s0,.012,0,.018a1.981,1.981,0,0,1-1.839,1.594ZM.421,8.853a.5.5,0,0,0,0,.754l.007.006,2.934,2.806a2.2,2.2,0,0,0,1.4.516H9.085c1.019,0,1.324-1.1,1.35-1.2.024-.157.293-1.926.487-3.108a1.086,1.086,0,0,0-.648-1.3l-.03-.012C10.221,7.3,7.811,6.145,7.153,5.84a2.7,2.7,0,0,0-.841-.219.25.25,0,0,1-.224-.249V1.1a.846.846,0,0,0-1.692,0v7.93a.25.25,0,0,1-.024.106l-.03.063a.25.25,0,0,1-.291.135c-1.141-.305-2.839-.739-3.043-.748A1.373,1.373,0,0,0,.421,8.853Z" transform="translate(-3665.371 -829.626)" fill="#fff"/>
  </g>
</svg>
