<?xml version="1.0" encoding="utf-8"?>
<!-- Generator: Adobe Illustrator 22.0.1, SVG Export Plug-In . SVG Version: 6.00 Build 0)  -->
<svg fill="#000000" width="52" height="52" version="1.1" id="lni_lni-hierchy-alt-1" xmlns="http://www.w3.org/2000/svg" xmlns:xlink="http://www.w3.org/1999/xlink"
	 x="0px" y="0px" viewBox="0 0 64 64" style="enable-background:new 0 0 64 64;" xml:space="preserve">
<g>
	<path d="M50.2,49.9c-0.5,0-1,0.1-1.5,0.2l-5.3-10.8h0.1c1,0,1.8-0.8,1.8-1.8V32c0-5.4-4.4-9.7-9.7-9.7h-7c-5.4,0-9.7,4.4-9.7,9.7
		v5.5c0,1,0.8,1.8,1.8,1.8h0.1l-5.3,10.8c-0.5-0.1-1-0.2-1.5-0.2c-3.1,0-5.6,2.5-5.6,5.6s2.5,5.6,5.6,5.6s5.6-2.5,5.6-5.6
		c0-1.8-0.9-3.5-2.3-4.5l5.7-11.7H31V51c-2.6,0.5-4.6,2.7-4.6,5.5c0,3.1,2.5,5.6,5.6,5.6s5.6-2.5,5.6-5.6c0-2.7-2-5-4.6-5.5V39.3
		h8.2L46.9,51c-1.4,1-2.3,2.6-2.3,4.5c0,3.1,2.5,5.6,5.6,5.6s5.6-2.5,5.6-5.6S53.3,49.9,50.2,49.9z M13.8,59.1c-2,0-3.6-1.6-3.6-3.6
		s1.6-3.6,3.6-3.6s3.6,1.6,3.6,3.6S15.8,59.1,13.8,59.1z M35.6,56.4c0,2-1.6,3.6-3.6,3.6s-3.6-1.6-3.6-3.6s1.6-3.6,3.6-3.6
		S35.6,54.5,35.6,56.4z M20.8,32c0-4.3,3.5-7.7,7.7-7.7h7c4.3,0,7.7,3.5,7.7,7.7v5.3h-1.5c0,0,0,0-0.1,0H32c0,0,0,0,0,0s0,0,0,0
		h-9.7c0,0,0,0-0.1,0h-1.5V32z M50.2,59.1c-2,0-3.6-1.6-3.6-3.6s1.6-3.6,3.6-3.6s3.6,1.6,3.6,3.6S52.2,59.1,50.2,59.1z"/>
	<path d="M32,16.6c4.2,0,7.5-3.3,7.5-7.3S36.2,2,32,2c-4.2,0-7.5,3.3-7.5,7.3S27.8,16.6,32,16.6z M32,4c3.1,0,5.5,2.4,5.5,5.3
		s-2.5,5.3-5.5,5.3c-3.1,0-5.5-2.4-5.5-5.3S28.9,4,32,4z"/>
</g>
</svg>
