<?xml version="1.0" encoding="utf-8"?>
<!-- Generator: Adobe Illustrator 22.0.0, SVG Export Plug-In . SVG Version: 6.00 Build 0)  -->
<svg fill="#000000" width="52" height="52" version="1.1" id="lni_lni-seo-consulting" xmlns="http://www.w3.org/2000/svg" xmlns:xlink="http://www.w3.org/1999/xlink"
	 x="0px" y="0px" viewBox="0 0 64 64" style="enable-background:new 0 0 64 64;" xml:space="preserve">
<g>
	<path d="M25.9,22.4c0,3.5,2.8,6.3,6.3,6.3c3.5,0,6.3-2.8,6.3-6.3s-2.8-6.3-6.3-6.3C28.8,16.1,25.9,19,25.9,22.4z M36.5,22.4
		c0,2.4-1.9,4.3-4.3,4.3s-4.3-1.9-4.3-4.3s1.9-4.3,4.3-4.3S36.5,20.1,36.5,22.4z"/>
	<path d="M61.8,41.8l-4.7-4.7c-0.3-0.3-0.7-0.4-1.1-0.2l-5.2,2.3c-0.5,0.2-0.7,0.8-0.5,1.3c0.2,0.5,0.8,0.7,1.3,0.5l3.6-1.6
		c0,0-0.1,0.1-0.1,0.1c-2,6.1-6.3,10.9-11.7,13.8V42.1c0-4.6-3.4-8.4-7.6-8.4h-7.8c-4.2,0-7.6,3.8-7.6,8.5v11
		c-5.2-2.9-9.2-7.6-11.2-13.5c-0.2-0.5-0.7-0.8-1.3-0.6c-0.5,0.2-0.8,0.7-0.6,1.3c3.5,10.7,13.5,18,24.8,18c11.3,0,21.3-7.2,24.9-18
		c0-0.1,0-0.1,0-0.2l3.2,3.2c0.2,0.2,0.5,0.3,0.7,0.3s0.5-0.1,0.7-0.3C62.2,42.8,62.2,42.2,61.8,41.8z M22.5,54.1v-12
		c0-3.6,2.5-6.5,5.6-6.5h3.5l-2,5.5c-0.2,0.6-0.2,1.2,0,1.7l1.4,4.6c0.3,0.9,1.5,0.9,1.8,0l1.4-4.6c0.2-0.6,0.2-1.2,0-1.7l-2-5.5
		h3.6c3.1,0,5.6,2.9,5.6,6.4v12.2c-2.9,1.2-6,1.9-9.3,1.9C28.8,56.2,25.5,55.4,22.5,54.1z"/>
	<path d="M8.1,28.6l5.6-3c0.5-0.3,0.7-0.9,0.4-1.4c-0.3-0.5-0.9-0.7-1.4-0.4l-3.8,2.1c2.8-10.6,12.3-18,23.3-18
		c11.1,0,20.8,7.6,23.5,18.4c0.1,0.5,0.7,0.9,1.2,0.7c0.5-0.1,0.9-0.7,0.7-1.2C54.7,14,44.3,5.8,32.2,5.8c-12,0-22.4,8.1-25.3,19.8
		l-3.3-3.3c-0.4-0.4-1-0.4-1.4,0s-0.4,1,0,1.4l4.7,4.7c0.2,0.2,0.4,0.3,0.7,0.3C7.8,28.7,7.9,28.7,8.1,28.6z"/>
</g>
</svg>
