<svg xmlns="http://www.w3.org/2000/svg" width="20.865" height="16.097" viewBox="0 0 20.865 16.097">
  <g id="Group_353" data-name="Group 353" transform="translate(4046.508 835)">
    <path id="Union_9" data-name="Union 9" d="M13.75,15.6a.827.827,0,0,0,.605-1.391l-3.621-3.882a.821.821,0,0,0-.65-.262l-.63.034-.133.616a.829.829,0,0,0,.2.739l3.621,3.883a.819.819,0,0,0,.6.263h0M5.751,11a5.232,5.232,0,0,0,2.814-.817l.625-.4.493-.556A5.251,5.251,0,1,0,5.751,11m8,5.095a1.323,1.323,0,0,1-.97-.422L9.159,11.793a1.326,1.326,0,0,1-.326-1.186,5.755,5.755,0,1,1,1.224-1.045,1.323,1.323,0,0,1,1.043.42l3.621,3.882A1.328,1.328,0,0,1,13.75,16.1Z" transform="translate(-4040.721 -835)" fill="#fff"/>
    <path id="Path_214" data-name="Path 214" d="M-4042.988-850.8h-11.073a.25.25,0,0,1-.25-.25.25.25,0,0,1,.25-.25h11.073a.25.25,0,0,1,.25.25A.25.25,0,0,1-4042.988-850.8Z" transform="translate(7.803 30.162)" fill="#fff"/>
    <path id="Path_215" data-name="Path 215" d="M-4047.181-850.8h-6.88a.25.25,0,0,1-.25-.25.25.25,0,0,1,.25-.25h6.88a.25.25,0,0,1,.25.25A.25.25,0,0,1-4047.181-850.8Z" transform="translate(7.803 27.507)" fill="#fff"/>
  </g>
</svg>
