<svg xmlns="http://www.w3.org/2000/svg" width="17.335" height="15.411" viewBox="0 0 17.335 15.411">
  <path id="Path_229" data-name="Path 229" d="M7.7,2h0a7.705,7.705,0,1,0,3,14.8c.08-.034.158-.07.236-.106a4.09,4.09,0,0,0,4.252.216,4.124,4.124,0,0,0,1.822-2.007,4.046,4.046,0,0,0,.3-1.173h0a4.116,4.116,0,0,0-.163-1.632h0q-.059-.191-.137-.376h0a4.088,4.088,0,0,0-.378-.694h0q-.11-.163-.236-.314h0q-.125-.152-.265-.292a4.113,4.113,0,0,0-.727-.574c0-.048,0-.1,0-.145A7.708,7.708,0,0,0,7.7,2Zm-.241.507V5.731H4.394A23.352,23.352,0,0,1,5.341,2.9a7.272,7.272,0,0,1,2.123-.39Zm.482,0A7.284,7.284,0,0,1,10,2.874a23.242,23.242,0,0,1,.953,2.857H7.945Zm2.663.6a7.186,7.186,0,0,1,3.123,2.624H11.454a23.1,23.1,0,0,0-.846-2.624Zm-5.877.031A22.934,22.934,0,0,0,3.9,5.731H1.678A7.186,7.186,0,0,1,4.732,3.138ZM1.417,6.212H3.781a17.327,17.327,0,0,0-.429,3.25H.506a7.146,7.146,0,0,1,.911-3.25Zm2.855,0H7.464v3.25H3.827A16.811,16.811,0,0,1,4.272,6.212Zm3.674,0H11.08a16.847,16.847,0,0,1,.442,3.25H7.945Zm3.629,0h2.417a7.184,7.184,0,0,1,.927,3.25h-.3A4.068,4.068,0,0,0,12,9.415a17.278,17.278,0,0,0-.427-3.2ZM13.242,9.7a3.6,3.6,0,0,1,3.593,3.241c.012.121.019.246.019.37h0a3.684,3.684,0,0,1-.073.728,3.612,3.612,0,0,1-7.131-.359h0a3.684,3.684,0,0,1,.054-1.1h0q.036-.176.089-.345h0q.053-.169.121-.331h0q.068-.161.152-.315h0c.055-.1.116-.2.181-.3h0c.065-.1.135-.188.208-.277h0A3.6,3.6,0,0,1,13.243,9.7ZM.506,9.944h2.84A15.836,15.836,0,0,0,3.666,13.2H1.417A7.148,7.148,0,0,1,.506,9.944Zm3.314,0H7.464V13.2H4.156A15.277,15.277,0,0,1,3.82,9.944Zm4.126,0h2.98a4.122,4.122,0,0,0-.84.769h0c-.083.1-.162.205-.236.314h0a4.112,4.112,0,0,0-.378.694h0q-.078.184-.137.376h0q-.06.192-.1.39h0c0,.02,0,.042-.009.063a4.084,4.084,0,0,0-.068.642H7.945Zm5.293,1.2a.25.25,0,0,0-.237.245v.26a.976.976,0,0,0-.842.913,1.04,1.04,0,0,0,1.083.99.515.515,0,1,1-.6.507.241.241,0,1,0-.482,0,1.012,1.012,0,0,0,.842.962v.214a.241.241,0,1,0,.482,0v-.263a.976.976,0,0,0,.842-.913,1.009,1.009,0,0,0-1.08-.989h0a.513.513,0,1,1-.013-1.014h.027a.552.552,0,0,1,.587.5.241.241,0,1,0,.482,0,1.014,1.014,0,0,0-.842-.963v-.209a.25.25,0,0,0-.245-.245ZM1.678,13.677h2.1a18.11,18.11,0,0,0,.8,2.52,7.185,7.185,0,0,1-2.894-2.52Zm2.587,0h3.2V16.9a7.263,7.263,0,0,1-2.27-.445,18.124,18.124,0,0,1-.929-2.781Zm3.68,0H9.169c0,.018,0,.037,0,.055h0a4.013,4.013,0,0,0,.062.405h0a4.041,4.041,0,0,0,.238.767h0a4.076,4.076,0,0,0,.378.694h0a4.146,4.146,0,0,0,.44.539c-.048.118-.095.236-.146.354a7.348,7.348,0,0,1-2.2.407Z" transform="translate(0 -1.998)" fill="#fff"/>
</svg>
