<?xml version="1.0" encoding="utf-8"?>
<!-- Generator: Adobe Illustrator 22.0.1, SVG Export Plug-In . SVG Version: 6.00 Build 0)  -->
<svg fill="#000000" width="52" height="52" version="1.1" id="lni_lni-finance" xmlns="http://www.w3.org/2000/svg" xmlns:xlink="http://www.w3.org/1999/xlink" x="0px"
	 y="0px" viewBox="0 0 64 64" style="enable-background:new 0 0 64 64;" xml:space="preserve">
<g>
	<path d="M25,37.9c0.1,0,0.2,0,0.3,0l16.3-4.7l-2.4,4.3c-0.3,0.5-0.1,1.1,0.4,1.4c0.2,0.1,0.3,0.1,0.5,0.1c0.4,0,0.7-0.2,0.9-0.5
		l3.6-6.5c0.1-0.2,0.2-0.5,0.1-0.8s-0.2-0.5-0.5-0.6l-6.7-3.7c-0.5-0.3-1.1-0.1-1.4,0.4c-0.3,0.5-0.1,1.1,0.4,1.4l4.7,2.6l-16.5,4.7
		c-0.5,0.2-0.8,0.7-0.7,1.2C24.2,37.6,24.6,37.9,25,37.9z"/>
	<path d="M33.5,18.8H27c-0.6,0-1,0.4-1,1s0.4,1,1,1h5v2c0,0.6,0.4,1,1,1s1-0.4,1-1v-2c2.2-0.3,4-2.1,4-4.4c0-2.5-2-4.5-4.5-4.5h-3
		c-1.4,0-2.5-1.1-2.5-2.5C28,8.1,29.1,7,30.5,7H37c0.6,0,1-0.4,1-1s-0.4-1-1-1h-3V3c0-0.6-0.4-1-1-1s-1,0.4-1,1v2h-1.5
		C28,5,26,7,26,9.4s2,4.5,4.5,4.5h3c1.4,0,2.5,1.1,2.5,2.5C36,17.7,34.9,18.8,33.5,18.8z"/>
	<path d="M54.2,10.7h-8.9c-0.6,0-1,0.4-1,1s0.4,1,1,1h8.9c1.6,0,2.9,1.3,2.9,2.9V44c0,1.6-1.3,2.9-2.9,2.9H32c0,0,0,0,0,0s0,0,0,0
		H9.8c-1.6,0-2.9-1.3-2.9-2.9V15.7c0-1.6,1.3-2.9,2.9-2.9h8.9c0.6,0,1-0.4,1-1s-0.4-1-1-1H9.8c-2.7,0-4.9,2.2-4.9,4.9V44
		C4.8,46.7,7,49,9.8,49H31v11h-8.7c-0.6,0-1,0.4-1,1s0.4,1,1,1h19.4c0.6,0,1-0.4,1-1s-0.4-1-1-1H33V49h21.2c2.7,0,4.9-2.2,4.9-4.9
		V15.7C59.2,12.9,57,10.7,54.2,10.7z"/>
</g>
</svg>
