<svg xmlns="http://www.w3.org/2000/svg" width="17.839" height="16.406" viewBox="0 0 17.839 16.406">
  <g id="Group_349" data-name="Group 349" transform="translate(4139.597 865.668)">
    <path id="Path_225" data-name="Path 225" d="M-4273.385-985.365l-.489-.1a8.926,8.926,0,0,1,1.591-3.248,7.885,7.885,0,0,1,2.609-2.206,8.854,8.854,0,0,1,4.135-.944l.212,0a8.175,8.175,0,0,1,6.791,3.25,8.183,8.183,0,0,1,1.43,3.157l-.493.084a7.822,7.822,0,0,0-1.352-2.961,7.124,7.124,0,0,0-2.335-2.043,8.726,8.726,0,0,0-4.05-.986l-.2,0a8.364,8.364,0,0,0-3.893.882,7.384,7.384,0,0,0-2.443,2.058A8.563,8.563,0,0,0-4273.385-985.365Z" transform="translate(134.814 126.199)" fill="#fff"/>
    <path id="Path_228" data-name="Path 228" d="M.244,6.253l-.489-.1A8.916,8.916,0,0,1,1.346,2.9,7.882,7.882,0,0,1,3.956.694,8.941,8.941,0,0,1,8.3-.248a8.1,8.1,0,0,1,8.22,6.406l-.493.084a7.828,7.828,0,0,0-1.352-2.961,7.123,7.123,0,0,0-2.335-2.043A8.726,8.726,0,0,0,8.293.252a8.448,8.448,0,0,0-4.106.886A7.386,7.386,0,0,0,1.742,3.205,8.533,8.533,0,0,0,.244,6.253Z" transform="translate(-4122.539 -849.512) rotate(180)" fill="#fff"/>
    <text id="_" data-name="$" transform="translate(-4132.5 -855)" fill="#fff" font-size="7" font-family="Nunito-Regular, Nunito"><tspan x="0" y="0">$</tspan></text>
    <path id="Path_226" data-name="Path 226" d="M-4209.539-971.5h1.306l-.634.634Z" transform="translate(70.068 112.278)" fill="#fff"/>
    <path id="Path_226_-_Outline" data-name="Path 226 - Outline" d="M-4209.539-971.62h1.306a.125.125,0,0,1,.116.077.126.126,0,0,1-.027.136l-.634.633a.125.125,0,0,1-.174,0l-.672-.634a.125.125,0,0,1-.03-.137A.125.125,0,0,1-4209.539-971.62Zm1,.25h-.689l.355.334Z" transform="translate(70.068 112.278)" fill="#fff"/>
    <path id="Path_227" data-name="Path 227" d="M0,0H1.306L.672.634Z" transform="translate(-4121.882 -855.713) rotate(180)" fill="#fff"/>
    <path id="Path_227_-_Outline" data-name="Path 227 - Outline" d="M0-.125H1.306a.125.125,0,0,1,.115.077.125.125,0,0,1-.027.136L.761.722a.125.125,0,0,1-.174,0L-.086.091a.125.125,0,0,1-.03-.137A.125.125,0,0,1,0-.125Zm1,.25H.315L.67.459Z" transform="translate(-4121.882 -855.713) rotate(180)" fill="#fff"/>
  </g>
</svg>
