<svg xmlns="http://www.w3.org/2000/svg" width="18.802" height="18.799" viewBox="0 0 18.802 18.799">
  <path id="Path_213" data-name="Path 213" d="M1.686,18.549h0A1.963,1.963,0,0,1,.294,15.2L5.921,9.57a.25.25,0,0,1,.354,0L8.7,11.993a.25.25,0,0,1,0,.354L3.072,17.975A1.945,1.945,0,0,1,1.686,18.549ZM6.1,10.1.647,15.551a1.463,1.463,0,0,0,1.033,2.5l.006.25v-.25a1.448,1.448,0,0,0,1.032-.428L8.169,12.17Zm8.742,8.432a3.681,3.681,0,0,1-3.655-3.43c0-.026-.005-.053-.009-.082a1.186,1.186,0,0,1-.014-.166,3.641,3.641,0,0,1,.184-1.12L4.533,6.921a3.6,3.6,0,0,1-1.119.185,1.187,1.187,0,0,1-.166-.014c-.029,0-.056-.008-.079-.009A3.682,3.682,0,0,1-.264,3.428,3.665,3.665,0,0,1,.1,1.849a.25.25,0,0,1,.4-.067L2.783,4.059a.888.888,0,0,0,1.461-.941.873.873,0,0,0-.2-.321L1.768.52a.25.25,0,0,1,.069-.4A3.634,3.634,0,0,1,3.414-.25,3.681,3.681,0,0,1,7.069,3.18c0,.026.005.053.009.082a1.186,1.186,0,0,1,.014.166,3.6,3.6,0,0,1-.185,1.119l6.815,6.815a3.6,3.6,0,0,1,1.119-.185,1.186,1.186,0,0,1,.166.014c.029,0,.056.008.079.009a3.682,3.682,0,0,1,3.432,3.655,3.634,3.634,0,0,1-.367,1.577.25.25,0,0,1-.4.069l-2.277-2.277a.892.892,0,0,0-1.262,0,.892.892,0,0,0-.2.939l0,0a.874.874,0,0,0,.2.319l2.276,2.276a.25.25,0,0,1-.069.4A3.634,3.634,0,0,1,14.841,18.532ZM4.6,6.383a.25.25,0,0,1,.177.073l7.036,7.036a.25.25,0,0,1,.057.266,3.14,3.14,0,0,0-.206,1.1.781.781,0,0,0,.01.1c0,.035.01.075.013.118a3.179,3.179,0,0,0,3.156,2.962,3.067,3.067,0,0,0,1.029-.18l-2.013-2.013a1.38,1.38,0,0,1-.315-.5,1.393,1.393,0,0,1,2.284-1.467l2.013,2.013a3.067,3.067,0,0,0,.18-1.029A3.18,3.18,0,0,0,15.054,11.7c-.041,0-.081-.008-.116-.013a.771.771,0,0,0-.1-.01,3.163,3.163,0,0,0-1.1.207.25.25,0,0,1-.264-.058L6.442,4.79a.25.25,0,0,1-.058-.264,3.163,3.163,0,0,0,.207-1.1.771.771,0,0,0-.01-.1c0-.035-.01-.075-.013-.118A3.179,3.179,0,0,0,3.414.25,3.067,3.067,0,0,0,2.385.43L4.4,2.443a1.368,1.368,0,0,1,.315.5A1.4,1.4,0,0,1,4.4,4.412a1.412,1.412,0,0,1-1.968,0L.416,2.4a3.162,3.162,0,0,0-.179,1.03A3.179,3.179,0,0,0,3.2,6.584c.041,0,.08.008.116.013a.77.77,0,0,0,.1.01,3.163,3.163,0,0,0,1.1-.207A.25.25,0,0,1,4.6,6.383Zm6.952,1.8a.249.249,0,0,1-.177-.073L10.163,6.894a.25.25,0,0,1,0-.354L13.12,3.584l1.249-2.414a.25.25,0,0,1,.107-.107L16.957-.222a.25.25,0,0,1,.292.045l1.2,1.2a.25.25,0,0,1,.045.292L17.206,3.792A.25.25,0,0,1,17.1,3.9L14.685,5.148,11.728,8.106A.249.249,0,0,1,11.551,8.179Zm-.858-1.461.858.858,2.808-2.808a.25.25,0,0,1,.062-.045L16.8,3.492l1.164-2.248L17.025.306,14.777,1.47,13.546,3.848a.25.25,0,0,1-.045.062Z" transform="translate(0.283 0.25)" fill="#fff"/>
</svg>
