<?xml version="1.0" encoding="utf-8"?>
<!-- Generator: Adobe Illustrator 22.0.0, SVG Export Plug-In . SVG Version: 6.00 Build 0)  -->
<svg fill="#000000" width="52" height="52" version="1.1" id="lni_lni-home" xmlns="http://www.w3.org/2000/svg" xmlns:xlink="http://www.w3.org/1999/xlink" x="0px"
	 y="0px" viewBox="0 0 64 64" style="enable-background:new 0 0 64 64;" xml:space="preserve">
<g>
	<path d="M32,15.2c-16.5,0-30,14.7-30,32.7c0,0.6,0.4,1,1,1h58c0.6,0,1-0.4,1-1C62,29.8,48.5,15.2,32,15.2z M35.9,46.8l-3-9.4
		c-0.3-0.9-1.5-0.9-1.8,0l-3,9.4H4c0.5-16.5,12.9-29.7,28-29.7s27.5,13.2,28,29.7H35.9z"/>
	<path d="M32,26c-0.6,0-1,0.4-1,1v2.6c0,0.6,0.4,1,1,1c0.6,0,1-0.4,1-1V27C33,26.4,32.6,26,32,26z"/>
	<path d="M47.9,33.2l-1.6,1.7c-0.4,0.4-0.4,1,0,1.4c0.2,0.2,0.4,0.3,0.7,0.3c0.3,0,0.5-0.1,0.7-0.3l1.6-1.7c0.4-0.4,0.4-1,0-1.4
		C48.9,32.8,48.2,32.8,47.9,33.2z"/>
	<path d="M16.2,33.2c-0.4-0.4-1-0.4-1.4-0.1s-0.4,1-0.1,1.4l1.5,1.7c0.2,0.2,0.5,0.3,0.7,0.3c0.2,0,0.5-0.1,0.7-0.3
		c0.4-0.4,0.4-1,0.1-1.4L16.2,33.2z"/>
</g>
</svg>
