<svg xmlns="http://www.w3.org/2000/svg" width="18.341" height="16.597" viewBox="0 0 18.341 16.597">
  <path id="Path_2" data-name="Path 2" d="M17.517,19.722h-2.9A1.221,1.221,0,0,1,13.394,18.5V13.913H10.021V18.5A1.221,1.221,0,0,1,8.8,19.722H5.9A1.221,1.221,0,0,1,4.68,18.5V11.976h-1.4a.728.728,0,0,1-.45-1.314l8.024-7.251a1.075,1.075,0,0,1,.765-.286,1.366,1.366,0,0,1,.816.268l.017.014,8.126,7.255a.728.728,0,0,1-.45,1.314h-1.4V18.5A1.283,1.283,0,0,1,17.517,19.722Zm-8-6.309h4.373V18.5a.72.72,0,0,0,.718.718h2.9a.789.789,0,0,0,.718-.718V11.476h1.9a.229.229,0,0,0,.14-.421l-.016-.014L12.13,3.787a.877.877,0,0,0-.508-.162.589.589,0,0,0-.416.145l-.009.009L3.143,11.055a.229.229,0,0,0,.14.421h1.9V18.5a.72.72,0,0,0,.718.718H8.8a.72.72,0,0,0,.718-.718Z" transform="translate(-2.537 -3.125)" fill="#fff"/>
</svg>
