<?xml version="1.0" encoding="utf-8"?>
<!-- Generator: Adobe Illustrator 22.0.0, SVG Export Plug-In . SVG Version: 6.00 Build 0)  -->
<svg fill="#000000" width="52" height="52" version="1.1" id="lni_lni-customer" xmlns="http://www.w3.org/2000/svg" xmlns:xlink="http://www.w3.org/1999/xlink" x="0px"
	 y="0px" viewBox="0 0 64 64" style="enable-background:new 0 0 64 64;" xml:space="preserve">
<g>
	<path d="M59.2,47.2L59.2,47.2c-1.1-3.5-4.6-5.5-7.9-4.6c-4.2,1.2-10.2,3-13.7,4c1.2-1.9,1.1-3.3,0.7-4.3c-0.7-1.8-2.8-2.6-4.6-2.6
		H24c-1.1,0-2.2-0.5-3.3-1.5c-0.9-0.8-2-1.2-3.2-1.2H9.7c-2.9,0-5.2,2.4-5.2,5.5v12.6c0,3.1,2.4,5.6,5.3,5.6h9.5
		c1.2,0,2.4-0.4,3.3-1.2l0.7,0.4c2.6,1.4,5.6,2.2,8.6,2.2c1.8,0,3.6-0.3,5.3-0.8l17.7-5.4C59.4,54.1,60.1,50.3,59.2,47.2z
		 M20.6,40.8v17.6c-0.4,0.2-0.9,0.3-1.4,0.3H9.8c-1.8,0-3.3-1.6-3.3-3.6V42.5c0-1.9,1.4-3.5,3.2-3.5h7.9c0.7,0,1.3,0.2,1.8,0.7
		C19.8,40.2,20.2,40.5,20.6,40.8L20.6,40.8z M54.2,53.9l-17.7,5.4c-1.5,0.5-3,0.7-4.7,0.7c-2.7,0-5.3-0.7-7.6-2l-1.3-0.7l-0.3-0.1
		V41.6c0.4,0.1,0.9,0.2,1.3,0.2h9.8c1.1,0,2.4,0.5,2.7,1.4c0.4,1.1-0.4,2.7-2.4,4.6l-0.6,0.5l0.4,0.7c0.4,0.8,0.4,0.8,9.6-1.9
		c4.2-1.2,8.4-2.5,8.4-2.5c2.3-0.6,4.7,0.8,5.4,3.2C57.7,49.1,58.1,52.4,54.2,53.9z"/>
	<path d="M50.5,14.6c3.5,0,6.3-2.8,6.3-6.3S54,2,50.5,2s-6.3,2.8-6.3,6.3S47.1,14.6,50.5,14.6z M50.5,4c2.4,0,4.3,1.9,4.3,4.3
		c0,2.4-1.9,4.3-4.3,4.3s-4.3-1.9-4.3-4.3C46.2,5.9,48.2,4,50.5,4z"/>
	<path d="M48.2,36.4h3.3c3.4,0,6.2-2.8,6.2-6.2v-5.7c0-3.4-2.8-6.2-6.2-6.2h-3c-3.4,0-6.2,2.8-6.2,6.2v5.6
		C42.3,33.6,45,36.4,48.2,36.4z M44.2,24.4c0-2.3,1.9-4.2,4.2-4.2h3c2.3,0,4.2,1.9,4.2,4.2v5.7c0,2.3-1.9,4.2-4.2,4.2h-3.3
		c-2.1,0-3.9-1.9-3.9-4.3V24.4z"/>
</g>
</svg>
