<svg xmlns="http://www.w3.org/2000/svg" width="16.25" height="18.549" viewBox="0 0 16.25 18.549">
  <g id="Group_347" data-name="Group 347" transform="translate(3520.25 822)">
    <g id="Group_346" data-name="Group 346" transform="translate(-3519.967 -820.817)">
      <path id="Path_210" data-name="Path 210" d="M7.23,17.366a2.86,2.86,0,0,1-.334-.02,2.889,2.889,0,0,1-1.91-1.057.25.25,0,0,1,.391-.312,2.391,2.391,0,0,0,3.321.39,2.232,2.232,0,0,0,.407-.391.25.25,0,1,1,.39.313A2.722,2.722,0,0,1,9,16.766,2.907,2.907,0,0,1,7.23,17.366Z" transform="translate(0)" fill="#fff"/>
    </g>
    <path id="Subtraction_6" data-name="Subtraction 6" d="M7.27,15.46a38.96,38.96,0,0,1-4.141-.221,4.145,4.145,0,0,1-2.6-1.248l-.012-.014a3.335,3.335,0,0,1-.771-2.2v-.185s0-.008,0-.012A3.327,3.327,0,0,1,.308,9.9a.251.251,0,0,1,.024-.031A3.932,3.932,0,0,0,1.287,8.03c0-.562,0-1.143.05-1.715A5.088,5.088,0,0,1,3.351,2.787,6.438,6.438,0,0,1,7.241,1.442h.066a6.537,6.537,0,0,1,2.98.781.66.66,0,0,1,.177.15.25.25,0,0,1,.069.217A2.5,2.5,0,0,0,12.859,5.5a.25.25,0,0,1,.214.148,1.541,1.541,0,0,1,.069.183,2.355,2.355,0,0,1,.076.485c.027.31.026.621.025.921,0,.26,0,.529.016.788a4,4,0,0,0,.957,1.855.251.251,0,0,1,.022.028,3.243,3.243,0,0,1,.558,1.677s0,.007,0,.011v.176a3.3,3.3,0,0,1-.781,2.21l-.01.012a4.107,4.107,0,0,1-2.6,1.249A38.935,38.935,0,0,1,7.27,15.46ZM.9,13.65A3.647,3.647,0,0,0,3.18,14.741a38.478,38.478,0,0,0,4.09.219,38.461,38.461,0,0,0,4.087-.219A3.61,3.61,0,0,0,13.64,13.65a2.8,2.8,0,0,0,.658-1.872s0,0,0-.006V11.6a2.743,2.743,0,0,0-.462-1.4,4.494,4.494,0,0,1-1.068-2.092.251.251,0,0,1,0-.033c-.021-.283-.02-.568-.019-.843s0-.587-.023-.873c-.014-.147-.035-.286-.046-.349l0-.015,0-.013a3,3,0,0,1-2.647-3.333,6.023,6.023,0,0,0-2.713-.707H7.241A5.928,5.928,0,0,0,3.659,3.181,4.593,4.593,0,0,0,1.836,6.359c-.048.558-.048,1.137-.048,1.7a.25.25,0,0,1-.005.051A4.431,4.431,0,0,1,.713,10.19,2.827,2.827,0,0,0,.251,11.6v.181s0,0,0,.005A2.835,2.835,0,0,0,.9,13.65Z" transform="translate(-3520 -822)" fill="#fff"/>
    <rect id="Rectangle_164" data-name="Rectangle 164" width="0.5" height="1.5" rx="0.25" transform="translate(-3512.976 -821.808)" fill="#fff"/>
    <path id="Ellipse_37" data-name="Ellipse 37" d="M3,.5A2.5,2.5,0,1,0,5.5,3,2.5,2.5,0,0,0,3,.5M3,0A3,3,0,1,1,0,3,3,3,0,0,1,3,0Z" transform="translate(-3510 -822)" fill="#fff"/>
  </g>
</svg>
