<?xml version="1.0" encoding="utf-8"?>
<!-- Generator: Adobe Illustrator 22.0.0, SVG Export Plug-In . SVG Version: 6.00 Build 0)  -->
<svg fill="#000000" width="52" height="52" version="1.1" id="lni_lni-invest-monitor" xmlns="http://www.w3.org/2000/svg" xmlns:xlink="http://www.w3.org/1999/xlink"
	 x="0px" y="0px" viewBox="0 0 64 64" style="enable-background:new 0 0 64 64;" xml:space="preserve">
<g>
	<path d="M12.5,38H4.1C2.9,38,2,39.1,2,40.4v18.4c0,1.3,0.9,2.4,2.1,2.4h8.4c1.2,0,2.1-1.1,2.1-2.4V40.4C14.5,39.1,13.6,38,12.5,38z
		 M12.5,58.7c0,0.2-0.1,0.4-0.1,0.4l-8.3,0c0,0-0.1-0.1-0.1-0.4V40.4C4,40.1,4.1,40,4.1,40h8.3c0,0,0.1,0.2,0.1,0.4V58.7z"/>
	<path d="M36.2,32.7h-8.4c-1.2,0-2.1,1-2.1,2.2v23.9c0,1.2,0.9,2.2,2.1,2.2h8.4c1.2,0,2.1-1,2.1-2.2V35
		C38.3,33.7,37.3,32.7,36.2,32.7z M36.3,58.8c0,0.2-0.1,0.2-0.1,0.2l-8.3,0c0,0-0.1-0.1-0.1-0.2V35c0-0.2,0.1-0.2,0.1-0.2h8.4
		c0,0,0.1,0.1,0.1,0.2V58.8z"/>
	<path d="M59.9,40.6h-8.4c-1.2,0-2.1,1.1-2.1,2.4v15.7c0,1.3,0.9,2.4,2.1,2.4h8.4c1.2,0,2.1-1.1,2.1-2.4V43
		C62,41.7,61.1,40.6,59.9,40.6z M60,58.7c0,0.2-0.1,0.4-0.1,0.4l-8.3,0c0,0-0.1-0.1-0.1-0.4V43c0-0.2,0.1-0.4,0.1-0.4h8.3
		c0,0,0.1,0.2,0.1,0.4V58.7z"/>
	<path d="M34.7,12.9h-5.3c-1.7,0-3-1.3-3-2.8c0-1.6,1.3-2.8,3-2.8h7.9c0.6,0,1-0.4,1-1s-0.4-1-1-1h-3.5V3.9c0-0.6-0.4-1-1-1
		s-1,0.4-1,1v1.3h-2.4c-2.8,0-5,2.2-5,4.8s2.2,4.8,5,4.8h5.3c1.7,0,3,1.3,3,2.8c0,1.6-1.3,2.8-3,2.8h-9c-0.6,0-1,0.4-1,1s0.4,1,1,1
		h6v1.3c0,0.6,0.4,1,1,1s1-0.4,1-1v-1.3h1c2.8,0,5-2.2,5-4.8S37.4,12.9,34.7,12.9z"/>
</g>
</svg>
