<svg xmlns="http://www.w3.org/2000/svg" width="19.419" height="14.759" viewBox="0 0 19.419 14.759">
  <g id="Group_352" data-name="Group 352" transform="translate(3920.279 835)">
    <path id="Ellipse_30" data-name="Ellipse 30" d="M3.5.5a3,3,0,1,0,3,3,3,3,0,0,0-3-3m0-.5A3.5,3.5,0,1,1,0,3.5,3.5,3.5,0,0,1,3.5,0Z" transform="translate(-3911.17 -835)" fill="#fff"/>
    <path id="Path_201" data-name="Path 201" d="M-4383.131-688.346h-13.12a.25.25,0,0,1-.185-.082.251.251,0,0,1-.064-.192,6.3,6.3,0,0,1,1.032-2.679,6.506,6.506,0,0,1,5.688-2.723h.116a6.493,6.493,0,0,1,5.68,2.7,6.645,6.645,0,0,1,1.1,2.7.251.251,0,0,1-.061.2A.25.25,0,0,1-4383.131-688.346Zm-12.827-.5h12.525a6.421,6.421,0,0,0-.975-2.212,6,6,0,0,0-5.257-2.464h-.11a6.029,6.029,0,0,0-5.279,2.5A6.04,6.04,0,0,0-4395.958-688.846Z" transform="translate(482.021 -131.894)" fill="#fff"/>
    <path id="Path_202" data-name="Path 202" d="M-3920.365-825.751a.25.25,0,0,1-.25-.25v-4.972a.25.25,0,0,1,.25-.25.25.25,0,0,1,.25.25V-826A.25.25,0,0,1-3920.365-825.751Z" transform="translate(2.822 -1.999)" fill="#fff"/>
    <path id="Path_203" data-name="Path 203" d="M0,5.221a.25.25,0,0,1-.25-.25V0A.25.25,0,0,1,0-.25.25.25,0,0,1,.25,0V4.971A.25.25,0,0,1,0,5.221Z" transform="translate(-3915.058 -830.486) rotate(90)" fill="#fff"/>
  </g>
</svg>
