<?xml version="1.0" encoding="utf-8"?>
<!-- Generator: Adobe Illustrator 22.0.0, SVG Export Plug-In . SVG Version: 6.00 Build 0)  -->
<svg fill="#000000" width="52" height="52" version="1.1" id="lni_lni-revenue" xmlns="http://www.w3.org/2000/svg" xmlns:xlink="http://www.w3.org/1999/xlink" x="0px"
	 y="0px" viewBox="0 0 64 64" style="enable-background:new 0 0 64 64;" xml:space="preserve">
<g>
	<path d="M61.7,45.7c-0.9-2.8-3.9-4.5-6.8-3.7l-14.1,3.4v-1.1c0-2.6-2-4.8-4.9-5.3l-13.9,0c-0.6-1.5-2.2-2.6-3.9-2.6h-12
		c-2.3,0-4.2,1.9-4.2,4.2v14.6c0,2.4,1.9,4.3,4.3,4.3h11.8c1.2,0,2.4-0.5,3.2-1.4c0.4-0.4,0.7-0.9,0.9-1.4l1.1,0.5
		c2.8,1.4,5.8,2.1,8.9,2.1c1.8,0,3.7-0.3,5.5-0.8l15.7-4.4l0,0c0,0,0,0,0,0l4.5-1.3c1.5-0.4,2.7-1.3,3.4-2.6
		C62,48.7,62.2,47.2,61.7,45.7z M19.8,56.6c-0.5,0.5-1.1,0.7-1.8,0.7H6.3c-1.2,0-2.3-1-2.3-2.3V40.5c0-1.2,1-2.2,2.2-2.2h12
		c1.2,0,2.3,1,2.3,2.3l0,14.5C20.5,55.6,20.3,56.2,19.8,56.6z M59.5,49.1c-0.5,0.8-1.2,1.4-2.2,1.7l-4.5,1.3l0,0l-15.7,4.4
		c-4.4,1.2-9,0.8-13-1.2l-1.7-0.9V40.9h13.3c1.8,0.3,3.1,1.7,3.1,3.3v1.6l-4.5,1.1c-0.5,0.1-0.9,0.7-0.7,1.2
		c0.1,0.5,0.7,0.9,1.2,0.7l20.6-4.9c1.9-0.5,3.8,0.6,4.4,2.4C60.1,47.2,60,48.2,59.5,49.1z"/>
	<path d="M47.8,19.8h5.3c2.3,0,4.2,1.9,4.2,4.3s-1.9,4.3-4.2,4.3h-7.9c-0.6,0-1,0.4-1,1s0.4,1,1,1h4.3V32c0,0.6,0.4,1,1,1s1-0.4,1-1
		v-1.6h1.7c3.4,0,6.2-2.8,6.2-6.3s-2.8-6.3-6.2-6.3h-5.3c-2.3,0-4.2-1.9-4.2-4.3s1.9-4.3,4.2-4.3h7.9c0.6,0,1-0.4,1-1s-0.4-1-1-1
		h-4.3V5.6c0-0.6-0.4-1-1-1s-1,0.4-1,1v1.6h-1.6c-3.4,0-6.2,2.8-6.2,6.3S44.4,19.8,47.8,19.8z"/>
</g>
</svg>
