<svg xmlns="http://www.w3.org/2000/svg" width="17.684" height="18.424" viewBox="0 0 17.684 18.424">
  <path id="Path_126" data-name="Path 126" d="M10.842,1.752a9.349,9.349,0,0,1,1.933.2.776.776,0,0,1,.6.62l.388,2.115a.807.807,0,0,0,.795.661.819.819,0,0,0,.274-.047l2.031-.723a.781.781,0,0,1,.84.211,9.136,9.136,0,0,1,1.938,3.337.773.773,0,0,1-.238.832l-1.646,1.392a.8.8,0,0,0-.093,1.133.81.81,0,0,0,.093.093l1.646,1.392a.773.773,0,0,1,.238.832,9.135,9.135,0,0,1-1.938,3.337.781.781,0,0,1-.84.211l-2.031-.723a.807.807,0,0,0-1.068.613l-.388,2.115a.776.776,0,0,1-.6.62,9.41,9.41,0,0,1-3.868,0,.776.776,0,0,1-.6-.621l-.387-2.115a.807.807,0,0,0-.795-.66.823.823,0,0,0-.147.013.813.813,0,0,0-.127.034l-2.032.723a.781.781,0,0,1-.84-.21A9.134,9.134,0,0,1,2.038,13.8a.773.773,0,0,1,.238-.832l1.646-1.392a.8.8,0,0,0,.093-1.133.806.806,0,0,0-.093-.093L2.275,8.96a.773.773,0,0,1-.238-.832A9.135,9.135,0,0,1,3.976,4.79a.781.781,0,0,1,.84-.211L6.847,5.3a.81.81,0,0,0,1.034-.487.8.8,0,0,0,.034-.126L8.3,2.575a.776.776,0,0,1,.6-.621A9.349,9.349,0,0,1,10.842,1.752Zm3.721,4.1a1.307,1.307,0,0,1-1.286-1.07l-.388-2.115a.277.277,0,0,0-.217-.221,8.909,8.909,0,0,0-3.66,0,.277.277,0,0,0-.217.222L8.407,4.78a1.309,1.309,0,0,1-1.728.994L4.648,5.051a.285.285,0,0,0-.3.075A8.638,8.638,0,0,0,2.514,8.282a.275.275,0,0,0,.085.3L4.245,9.97a1.309,1.309,0,0,1,.151.15,1.3,1.3,0,0,1-.151,1.839L2.6,13.351a.275.275,0,0,0-.085.3A8.637,8.637,0,0,0,4.346,16.8a.285.285,0,0,0,.3.075l2.031-.723a1.31,1.31,0,0,1,1.728.994l.387,2.115a.277.277,0,0,0,.217.222,8.908,8.908,0,0,0,3.66,0,.277.277,0,0,0,.217-.221l.388-2.115A1.31,1.31,0,0,1,15,16.155l2.031.723a.285.285,0,0,0,.3-.075,8.638,8.638,0,0,0,1.833-3.156.275.275,0,0,0-.085-.3l-1.646-1.392a1.312,1.312,0,0,1-.151-.15,1.3,1.3,0,0,1,.151-1.839l1.646-1.392a.275.275,0,0,0,.085-.3,8.64,8.64,0,0,0-1.833-3.156.285.285,0,0,0-.3-.075L15,5.774a1.319,1.319,0,0,1-.441.076ZM10.842,8.1a2.865,2.865,0,1,1-2.865,2.865A2.868,2.868,0,0,1,10.842,8.1Zm0,5.23a2.365,2.365,0,1,0-2.365-2.365A2.368,2.368,0,0,0,10.842,13.329Z" transform="translate(-2 -1.752)" fill="#fff"/>
</svg>
