<?xml version="1.0" standalone="no"?><!DOCTYPE svg PUBLIC "-//W3C//DTD SVG 1.1//EN" "http://www.w3.org/Graphics/SVG/1.1/DTD/svg11.dtd"><svg t="1664437540941" class="icon" viewBox="0 0 1024 1024" version="1.1" xmlns="http://www.w3.org/2000/svg" p-id="1556" xmlns:xlink="http://www.w3.org/1999/xlink" width="200" height="200"><path d="M512 106.666667a405.333333 405.333333 0 1 0 405.333333 405.333333A405.333333 405.333333 0 0 0 512 106.666667z m-21.333333 128a21.333333 21.333333 0 0 1 42.666666 0v85.333333a21.333333 21.333333 0 0 1-42.666666 0z m21.333333 533.333333a255.893333 255.893333 0 0 1-116.373333-483.84 21.333333 21.333333 0 0 1 19.413333 37.994667 213.333333 213.333333 0 1 0 193.92 0 21.333333 21.333333 0 0 1 19.413333-37.994667A255.893333 255.893333 0 0 1 512 768z" fill="#34D499" p-id="1557"></path></svg>