<svg xmlns="http://www.w3.org/2000/svg" width="17.728" height="19.509" viewBox="0 0 17.728 19.509">
  <g id="Group_350" data-name="Group 350" transform="translate(-0.5 -0.5)">
    <path id="Line_37" data-name="Line 37" d="M7.478.461H.105a.355.355,0,1,1,0-.711H7.478a.355.355,0,1,1,0,.711Z" transform="translate(5.596 14.507)" fill="#fff"/>
    <path id="Line_38" data-name="Line 38" d="M7.478.461H.105a.355.355,0,1,1,0-.711H7.478a.355.355,0,1,1,0,.711Z" transform="translate(5.596 10.233)" fill="#fff"/>
    <path id="Line_39" data-name="Line 39" d="M2.919.461H.105a.355.355,0,1,1,0-.711H2.919a.355.355,0,0,1,0,.711Z" transform="translate(5.596 5.968)" fill="#fff"/>
    <path id="Path_230" data-name="Path 230" d="M13.27.5h0a4.694,4.694,0,0,1,4.957,5.06v9.39a4.693,4.693,0,0,1-4.917,5.057l-7.853,0A4.694,4.694,0,0,1,.5,14.949V5.559A4.692,4.692,0,0,1,5.417.5ZM5.457,19.3l7.851,0a3.986,3.986,0,0,0,4.209-4.346V5.559A3.988,3.988,0,0,0,13.27,1.211l-7.851,0A3.985,3.985,0,0,0,1.211,5.559v9.39A3.988,3.988,0,0,0,5.457,19.3Z" transform="translate(0 0)" fill="#fff"/>
  </g>
</svg>
