<svg xmlns="http://www.w3.org/2000/svg" width="16" height="16" viewBox="0 0 16 16">
  <g id="Group_341" data-name="Group 341" transform="translate(3789 860)">
    <path id="Ellipse_31" data-name="Ellipse 31" d="M8,.5A7.5,7.5,0,1,0,15.5,8,7.508,7.508,0,0,0,8,.5M8,0A8,8,0,1,1,0,8,8,8,0,0,1,8,0Z" transform="translate(-3789 -860)" fill="#fff"/>
    <path id="Path_205" data-name="Path 205" d="M-3878.213-811.9a.25.25,0,0,1-.25-.25v-1.535a.25.25,0,0,1,.25-.25,2.249,2.249,0,0,0,1.747-.695,2.369,2.369,0,0,0,.549-1.581,2.466,2.466,0,0,0-2.3-2.633,2.608,2.608,0,0,0-2.023.721,2.392,2.392,0,0,0-.532,1.67.25.25,0,0,1-.223.274.249.249,0,0,1-.274-.222,2.865,2.865,0,0,1,.655-2.053,3.075,3.075,0,0,1,2.4-.891,2.958,2.958,0,0,1,2.8,3.133,2.866,2.866,0,0,1-.675,1.912,2.654,2.654,0,0,1-1.871.855v1.293A.25.25,0,0,1-3878.213-811.9Z" transform="translate(97.363 -37.219)" fill="#fff"/>
    <circle id="Ellipse_33" data-name="Ellipse 33" cx="0.329" cy="0.329" r="0.329" transform="translate(-3781.159 -848.345)" fill="#fff"/>
    <path id="Ellipse_33_-_Outline" data-name="Ellipse 33 - Outline" d="M.329,0A.329.329,0,1,1,0,.329.329.329,0,0,1,.329,0Z" transform="translate(-3781.159 -848.345)" fill="#fff"/>
  </g>
</svg>
