<?xml version="1.0" encoding="utf-8"?>
<!-- Generator: Adobe Illustrator 22.0.1, SVG Export Plug-In . SVG Version: 6.00 Build 0)  -->
<svg fill="#000000" width="52" height="52" version="1.1" id="lni_lni-move-task" xmlns="http://www.w3.org/2000/svg" xmlns:xlink="http://www.w3.org/1999/xlink" x="0px"
	 y="0px" viewBox="0 0 64 64" style="enable-background:new 0 0 64 64;" xml:space="preserve">
<g>
	<path d="M61,31H32.6c-0.6,0-1,0.4-1,1s0.4,1,1,1H61c0.6,0,1-0.4,1-1S61.6,31,61,31z"/>
	<path d="M61,48.3H32.8c-0.6,0-1,0.4-1,1s0.4,1,1,1H61c0.6,0,1-0.4,1-1S61.6,48.3,61,48.3z"/>
	<path d="M32.8,15.7H61c0.6,0,1-0.4,1-1s-0.4-1-1-1H32.8c-0.6,0-1,0.4-1,1S32.2,15.7,32.8,15.7z"/>
	<path d="M17.9,30.6L5.8,21.9c-0.7-0.5-1.7-0.6-2.5-0.2C2.5,22.1,2,23,2,23.9v17.4c0,0.9,0.5,1.7,1.3,2.1c0.3,0.2,0.7,0.3,1.1,0.3
		c0.5,0,1-0.2,1.4-0.5l12.1-8.7c0.6-0.4,1-1.2,1-1.9C18.9,31.8,18.5,31.1,17.9,30.6z M16.7,32.9L4.6,41.6c-0.2,0.1-0.3,0.1-0.4,0
		c-0.1,0-0.2-0.1-0.2-0.3V23.9c0-0.2,0.1-0.3,0.2-0.3c0,0,0.1,0,0.2,0c0.1,0,0.1,0,0.2,0.1l12.1,8.7c0.1,0.1,0.2,0.2,0.2,0.3
		C16.9,32.7,16.9,32.8,16.7,32.9z"/>
</g>
</svg>
