<?xml version="1.0" encoding="utf-8"?>
<!-- Generator: Adobe Illustrator 22.0.0, SVG Export Plug-In . SVG Version: 6.00 Build 0)  -->
<svg fill="#000000" width="52" height="52" version="1.1" id="lni_lni-stats-up" xmlns="http://www.w3.org/2000/svg" xmlns:xlink="http://www.w3.org/1999/xlink" x="0px"
	 y="0px" viewBox="0 0 64 64" style="enable-background:new 0 0 64 64;" xml:space="preserve">
<g>
	<path d="M61,60H6.2C5,60,4,59,4,57.8V3c0-0.6-0.4-1-1-1S2,2.4,2,3v54.8C2,60.1,3.9,62,6.2,62H61c0.6,0,1-0.4,1-1S61.6,60,61,60z"/>
	<path d="M59.7,23.1H47.8c-0.6,0-1,0.4-1,1s0.4,1,1,1h10.6l-8.5,7.4H35.8c-0.3,0-0.6,0.1-0.8,0.4L27.2,43H14.7c-0.6,0-1,0.4-1,1
		s0.4,1,1,1h13c0.3,0,0.6-0.1,0.8-0.4l7.8-10.2h14c0.2,0,0.5-0.1,0.7-0.2l9.1-7.9v10.9c0,0.6,0.4,1,1,1s1-0.4,1-1V25.4
		C62,24.1,61,23.1,59.7,23.1z"/>
</g>
</svg>
